<svg width="120" height="120" viewBox="0 0 120 120" fill="none" xmlns="http://www.w3.org/2000/svg">
<path d="M36.2635 69.7446C36.2873 69.6284 36.4533 69.6284 36.4771 69.7446C37.7098 75.7759 42.4232 80.4892 48.4544 81.722C48.5706 81.7457 48.5706 81.9117 48.4544 81.9355C42.4232 83.1682 37.7098 87.8816 36.4771 93.9128C36.4533 94.029 36.2873 94.029 36.2635 93.9128C35.0308 87.8816 30.3174 83.1682 24.2862 81.9355C24.17 81.9117 24.17 81.7457 24.2862 81.722C30.3174 80.4892 35.0308 75.7759 36.2635 69.7446Z" stroke="url(#paint0_linear_735_104)" stroke-width="5"/>
<path d="M63.3843 87.2315H72.7491C80.818 87.2315 84.8524 87.2314 87.9344 85.6611C90.6453 84.2799 92.8493 82.0758 94.2306 79.3649C95.8009 76.283 95.8009 72.2485 95.8009 64.1796V49.0518C95.8009 40.9829 95.8009 36.9485 94.2306 33.8666C92.8493 31.1557 90.6453 28.9516 87.9344 27.5703C84.8524 26 80.818 26 72.7491 26H50.4176C42.3487 26 38.3143 26 35.2324 27.5703C32.5214 28.9516 30.3174 31.1557 28.9361 33.8666C27.3658 36.9485 27.3658 40.9829 27.3658 49.0518V56.6157M65.1852 49.412C66.5293 50.1788 68.0592 51.1483 69.5363 52.1254C71.6446 53.5201 72.6988 54.2175 73.1209 55.2312C73.4714 56.0731 73.4714 57.1583 73.1209 58.0002C72.6988 59.0139 71.6446 59.7113 69.5362 61.106C68.0591 62.0831 66.5293 63.0526 65.1852 63.8194C64.0654 64.4582 62.7459 65.1438 61.4209 65.8023C59.1806 66.9156 58.0604 67.4723 56.9757 67.3323C56.0767 67.2162 55.1364 66.676 54.5833 65.9579C53.9159 65.0914 53.8327 63.8455 53.6662 61.3538C53.5567 59.7148 53.4792 58.0488 53.4792 56.6157C53.4792 55.1826 53.5567 53.5165 53.6662 51.8776C53.8327 49.3859 53.916 48.14 54.5833 47.2735C55.1364 46.5554 56.0767 46.0152 56.9757 45.8992C58.0604 45.7591 59.1805 46.3158 61.4208 47.4291C62.7459 48.0876 64.0654 48.7732 65.1852 49.412Z" stroke="url(#paint1_linear_735_104)" stroke-width="5" stroke-linecap="round"/>
<defs>
<linearGradient id="paint0_linear_735_104" x1="24.199" y1="81.8287" x2="48.5416" y2="81.8287" gradientUnits="userSpaceOnUse">
<stop stop-color="#075CA9"/>
<stop offset="1" stop-color="#4CAF50"/>
</linearGradient>
<linearGradient id="paint1_linear_735_104" x1="27.3658" y1="56.6157" x2="95.8009" y2="56.6157" gradientUnits="userSpaceOnUse">
<stop stop-color="#075CA9"/>
<stop offset="1" stop-color="#4CAF50"/>
</linearGradient>
</defs>
</svg>
