<svg width="120" height="120" viewBox="0 0 120 120" fill="none" xmlns="http://www.w3.org/2000/svg">
<path d="M83.0808 68.0076C83.1041 67.8936 83.267 67.8936 83.2903 68.0076C84.4999 73.9254 89.1245 78.55 95.0422 79.7595C95.1563 79.7828 95.1563 79.9457 95.0422 79.969C89.1245 81.1786 84.4999 85.8032 83.2903 91.721C83.267 91.835 83.1041 91.835 83.0808 91.721C81.8713 85.8032 77.2466 81.1786 71.3289 79.969C71.2149 79.9457 71.2149 79.7828 71.3289 79.7595C77.2466 78.55 81.8713 73.9254 83.0808 68.0076Z" stroke="url(#paint0_linear_735_248)" stroke-width="5"/>
<path d="M59.6065 32.3792C58.2671 32.7141 57.4527 34.0714 57.7875 35.4109C58.1224 36.7504 59.4797 37.5648 60.8192 37.2299L60.2129 34.8046L59.6065 32.3792ZM53.7863 93.019L54.3013 90.5727H54.3013L53.7863 93.019ZM38.3411 89.7674L38.8562 87.3211H38.8562L38.3411 89.7674ZM89.5194 60.4265C89.5194 61.8072 90.6387 62.9265 92.0194 62.9265C93.4001 62.9265 94.5194 61.8072 94.5194 60.4265H92.0194H89.5194ZM67.3543 94.6793C68.7054 94.3949 69.57 93.069 69.2856 91.7179C69.0012 90.3669 67.6753 89.5022 66.3242 89.7866L66.8392 92.233L67.3543 94.6793ZM63.1054 93.019L62.5904 90.5727H62.5904L63.1054 93.019ZM57.2739 93.6415L57.4812 91.1501H57.4812L57.2739 93.6415ZM59.6178 93.6415L59.4105 91.1501H59.4105L59.6178 93.6415ZM25.7468 82.5456L23.4529 83.5399H23.4529L25.7468 82.5456ZM29.3446 86.9798L27.8992 89.0196H27.8992L29.3446 86.9798ZM84.5479 30.3025L83.8097 32.6911V32.6911L84.5479 30.3025ZM90.4849 34.938L92.6231 33.6425V33.6425L90.4849 34.938ZM24.8779 41.3428L27.3766 41.4238L24.8779 41.3428ZM37.61 33.8564C38.9611 34.1408 40.287 33.2761 40.5714 31.925C40.8558 30.5739 39.9911 29.2481 38.6401 28.9636L38.125 31.41L37.61 33.8564ZM37.3211 31.2464L36.8857 33.7082L37.3211 31.2464ZM57.7129 46.6096C57.7129 47.9903 58.8322 49.1096 60.2129 49.1096C61.5936 49.1096 62.7129 47.9903 62.7129 46.6096H60.2129H57.7129ZM55.5405 30.9389L56.9388 28.8665L55.5405 30.9389ZM50.0299 27.2209L48.6316 29.2933L50.0299 27.2209ZM42.3124 81.3926L42.9042 78.9636L42.9041 78.9636L42.3124 81.3926ZM43.3435 81.6438L42.7517 84.0728L42.7518 84.0728L43.3435 81.6438ZM55.4568 94.9574C55.9856 96.2329 57.4482 96.8382 58.7237 96.3094C59.9991 95.7806 60.6044 94.318 60.0756 93.0426L57.7662 94L55.4568 94.9574ZM24.8723 73.1678H27.3723V42.1632H24.8723H22.3723V73.1678H24.8723ZM60.2129 34.8046L60.8192 37.2299L71.548 34.5477L70.9417 32.1224L70.3353 29.697L59.6065 32.3792L60.2129 34.8046ZM53.7863 93.019L54.3013 90.5727L38.8562 87.3211L38.3411 89.7674L37.8261 92.2138L53.2713 95.4654L53.7863 93.019ZM92.0194 48.5793H89.5194V60.4265H92.0194H94.5194V48.5793H92.0194ZM66.8392 92.233L66.3242 89.7866L62.5904 90.5727L63.1054 93.019L63.6204 95.4654L67.3543 94.6793L66.8392 92.233ZM53.7863 93.019L53.2713 95.4654C54.9528 95.8194 55.9978 96.0439 57.0667 96.1329L57.2739 93.6415L57.4812 91.1501C56.7938 91.0929 56.0992 90.9512 54.3013 90.5727L53.7863 93.019ZM63.1054 93.019L62.5904 90.5727C60.7925 90.9512 60.0979 91.0929 59.4105 91.1501L59.6178 93.6415L59.825 96.1329C60.8939 96.0439 61.9389 95.8194 63.6204 95.4654L63.1054 93.019ZM57.2739 93.6415L57.0666 96.1329C57.9845 96.2092 58.9072 96.2092 59.8251 96.1329L59.6178 93.6415L59.4105 91.1501C58.7685 91.2035 58.1232 91.2035 57.4812 91.1501L57.2739 93.6415ZM24.8723 73.1678H22.3723C22.3723 75.5847 22.3707 77.5323 22.4884 79.1245C22.6084 80.7483 22.8611 82.1744 23.4529 83.5399L25.7468 82.5456L28.0406 81.5514C27.758 80.8995 27.5734 80.0901 27.4748 78.756C27.3739 77.3905 27.3723 75.6579 27.3723 73.1678H24.8723ZM38.3411 89.7674L38.8562 87.3211C36.4195 86.8081 34.7244 86.4496 33.409 86.0695C32.1238 85.6982 31.3698 85.3509 30.79 84.94L29.3446 86.9798L27.8992 89.0196C29.1135 89.8801 30.4569 90.4211 32.0211 90.873C33.555 91.3162 35.4611 91.7159 37.8261 92.2138L38.3411 89.7674ZM25.7468 82.5456L23.4529 83.5399C24.406 85.7387 25.9438 87.634 27.8992 89.0196L29.3446 86.9798L30.79 84.94C29.5809 84.0832 28.6299 82.9112 28.0406 81.5514L25.7468 82.5456ZM70.9417 32.1224L71.548 34.5477C75.1848 33.6385 77.7533 32.9988 79.7683 32.6803C81.7648 32.3648 82.9281 32.4186 83.8097 32.6911L84.5479 30.3025L85.2861 27.914C83.3385 27.3121 81.2909 27.3777 78.9878 27.7416C76.7032 28.1027 73.8832 28.81 70.3353 29.697L70.9417 32.1224ZM92.0194 48.5793H94.5194C94.5194 44.9223 94.5217 42.0149 94.3178 39.7109C94.1124 37.3883 93.6794 35.386 92.6231 33.6425L90.4849 34.938L88.3467 36.2335C88.8249 37.0227 89.1592 38.1382 89.3373 40.1516C89.5171 42.1836 89.5194 44.8306 89.5194 48.5793H92.0194ZM84.5479 30.3025L83.8097 32.6911C85.7046 33.2767 87.3189 34.5371 88.3467 36.2335L90.4849 34.938L92.6231 33.6425C90.961 30.8993 88.3505 28.8611 85.2861 27.914L84.5479 30.3025ZM24.8723 42.1632H27.3723C27.3723 41.7096 27.3727 41.5446 27.3766 41.4238L24.8779 41.3428L22.3792 41.2617C22.372 41.4846 22.3723 41.752 22.3723 42.1632H24.8723ZM38.125 31.41L38.6401 28.9636C38.2377 28.8789 37.9761 28.8235 37.7565 28.7847L37.3211 31.2464L36.8857 33.7082C37.0047 33.7293 37.1662 33.7629 37.61 33.8564L38.125 31.41ZM24.8779 41.3428L27.3766 41.4238C27.5365 36.4935 32.0281 32.8491 36.8857 33.7082L37.3211 31.2464L37.7565 28.7847C29.9012 27.3953 22.6379 33.2887 22.3792 41.2617L24.8779 41.3428ZM60.2129 46.6096H62.7129V39.7277H60.2129H57.7129V46.6096H60.2129ZM55.5405 30.9389L56.9388 28.8665L51.4281 25.1485L50.0299 27.2209L48.6316 29.2933L54.1423 33.0113L55.5405 30.9389ZM39.0085 33.0801H36.5085V77.1871H39.0085H41.5085V33.0801H39.0085ZM42.3124 81.3926L41.7206 83.8215L42.7517 84.0728L43.3435 81.6438L43.9354 79.2149L42.9042 78.9636L42.3124 81.3926ZM43.3435 81.6438L42.7518 84.0728C48.4797 85.4683 53.199 89.5114 55.4568 94.9574L57.7662 94L60.0756 93.0426C57.2073 86.124 51.212 80.9878 43.9353 79.2149L43.3435 81.6438ZM39.0085 77.1871H36.5085C36.5085 80.3358 38.6614 83.0762 41.7206 83.8215L42.3124 81.3926L42.9041 78.9636C42.085 78.764 41.5085 78.0303 41.5085 77.1871H39.0085ZM50.0299 27.2209L51.4281 25.1485C45.0732 20.8609 36.5085 25.4141 36.5085 33.0801H39.0085H41.5085C41.5085 29.4201 45.5976 27.2463 48.6316 29.2933L50.0299 27.2209ZM60.2129 39.7277H62.7129C62.7129 35.3727 60.5489 31.3023 56.9388 28.8665L55.5405 30.9389L54.1423 33.0113C56.3747 34.5176 57.7129 37.0347 57.7129 39.7277H60.2129Z" fill="url(#paint1_linear_735_248)"/>
<defs>
<linearGradient id="paint0_linear_735_248" x1="71.2434" y1="79.8643" x2="95.1278" y2="79.8643" gradientUnits="userSpaceOnUse">
<stop stop-color="#075CA9"/>
<stop offset="1" stop-color="#4CAF50"/>
</linearGradient>
<linearGradient id="paint1_linear_735_248" x1="24.8723" y1="60" x2="92.0194" y2="60" gradientUnits="userSpaceOnUse">
<stop stop-color="#075CA9"/>
<stop offset="1" stop-color="#4CAF50"/>
</linearGradient>
</defs>
</svg>
