<svg width="120" height="120" viewBox="0 0 120 120" fill="none" xmlns="http://www.w3.org/2000/svg">
<path d="M73.9271 65.2041C73.9548 65.0685 74.1484 65.0685 74.1761 65.2041C75.6139 72.2382 81.111 77.7353 88.1451 79.173C88.2806 79.2007 88.2806 79.3944 88.1451 79.4221C81.111 80.8598 75.6139 86.3569 74.1761 93.391C74.1484 93.5265 73.9548 93.5265 73.9271 93.391C72.4894 86.3569 66.9923 80.8598 59.9582 79.4221C59.8226 79.3944 59.8226 79.2007 59.9582 79.173C66.9923 77.7353 72.4894 72.2382 73.9271 65.2041Z" stroke="url(#paint0_linear_735_88)" stroke-width="5"/>
<path d="M89.5597 56.7876C89.7896 55.6624 91.3973 55.6624 91.6273 56.7876C92.1353 59.2727 94.0774 61.2148 96.5625 61.7228C97.6877 61.9527 97.6877 63.5604 96.5625 63.7904C94.0773 64.2983 92.1353 66.2404 91.6273 68.7255C91.3973 69.8507 89.7896 69.8507 89.5597 68.7255C89.0517 66.2404 87.1096 64.2983 84.6245 63.7904C83.4993 63.5604 83.4993 61.9527 84.6245 61.7228C87.1096 61.2148 89.0517 59.2727 89.5597 56.7876Z" fill="url(#paint1_linear_735_88)"/>
<path d="M55.6748 94C37.4046 94 22.5937 87.4174 22.5937 79.2973C22.5937 71.1772 37.4046 64.5946 55.6748 64.5946M53.8369 55.4054C47.7469 55.4054 42.8099 50.4684 42.8099 44.3784V37.027C42.8099 30.937 47.7469 26 53.8369 26C59.927 26 64.864 30.937 64.864 37.027V44.3784C64.864 50.4684 59.927 55.4054 53.8369 55.4054Z" stroke="url(#paint2_linear_735_88)" stroke-width="5" stroke-linecap="round"/>
<defs>
<linearGradient id="paint0_linear_735_88" x1="59.8565" y1="79.2975" x2="88.2467" y2="79.2975" gradientUnits="userSpaceOnUse">
<stop stop-color="#075CA9"/>
<stop offset="1" stop-color="#4CAF50"/>
</linearGradient>
<linearGradient id="paint1_linear_735_88" x1="83.7806" y1="62.7566" x2="97.4064" y2="62.7566" gradientUnits="userSpaceOnUse">
<stop stop-color="#075CA9"/>
<stop offset="1" stop-color="#4CAF50"/>
</linearGradient>
<linearGradient id="paint2_linear_735_88" x1="22.5937" y1="60" x2="64.864" y2="60" gradientUnits="userSpaceOnUse">
<stop stop-color="#075CA9"/>
<stop offset="1" stop-color="#4CAF50"/>
</linearGradient>
</defs>
</svg>
