<svg width="141" height="155" viewBox="0 0 141 155" fill="none" xmlns="http://www.w3.org/2000/svg">
<path d="M140.227 30.885C140.205 33.2328 138.859 35.0986 136.637 36.017L101.976 48.8419L85.9777 54.7973L75.3111 58.924C73.5355 59.377 71.7599 59.83 69.9887 59.8135C68.2175 59.7969 66.4507 59.3109 64.6839 58.8248L54.0962 54.4995L38.2125 48.2465L29.83 44.881C31.6231 42.5498 34.2931 41.1659 36.963 39.7821L71.1901 26.0139C72.97 25.0913 73.8732 23.2214 73.0051 21.3349C72.1371 19.4484 70.3747 18.4928 68.5947 19.4153L34.3676 33.1835C29.9221 35.0204 26.3534 37.8046 23.6615 41.5362C19.6281 46.6641 17.3528 53.2172 17.287 60.2605L17.2344 65.8951C17.664 67.3079 18.532 69.1944 18.9617 70.6072C19.3913 72.02 19.8166 73.9023 20.2462 75.3151C21.5132 81.9013 22.3199 90.3615 20.4522 100.675C20.4435 101.614 19.5491 102.545 19.1019 103.011C18.2119 103.472 17.3219 103.933 16.4407 103.455L9.59345 100.679L2.74905 99.5706C1.42504 99.0887 0.548222 98.1413 0.114194 97.1981C-0.319835 96.2548 2.15739 88.5452 0.587681 93.9153C2.38519 91.1146 4.18268 88.3138 5.54178 85.0393C8.2468 79.899 10.5266 72.8764 10.588 66.3027L10.645 60.1985C10.7152 52.6856 12.9949 45.663 16.5943 39.5919L4.23982 34.7806C2.0346 33.8208 0.723729 31.9301 0.745654 29.5824C0.76758 27.2346 2.11353 25.3688 4.33629 24.4504L65.6617 1.54337C67.4373 1.09036 69.2129 0.63735 70.9841 0.653891C72.7553 0.670432 74.5221 1.15653 76.2889 1.64262L137.176 25.691C138.943 26.1771 140.249 28.5372 140.227 30.885Z" fill="#045BA7"/>
<path d="M134.271 97.4532C134.271 98.3553 134.271 98.8064 134.271 99.7085C134.271 100.611 134.271 101.062 134.271 101.964H32.7839C33.235 107.376 34.5881 112.338 36.8434 117.3C39.0987 122.261 42.7071 126.321 46.3155 129.929C50.375 133.538 54.8856 136.695 59.8471 138.499C64.8087 140.754 70.2214 141.656 75.634 141.656C80.5956 141.656 85.1061 140.754 89.6167 139.401C94.1272 138.048 97.7357 136.244 101.344 133.538C104.953 131.282 107.659 128.576 109.914 125.419C112.169 122.261 113.974 119.104 115.327 115.495H130.212C128.407 120.908 125.701 126.321 122.093 130.831C118.484 135.793 114.425 139.852 109.463 143.461C104.501 147.069 99.5399 149.775 93.6762 151.58C87.8125 153.384 81.9488 154.737 75.634 154.737C67.9661 154.737 60.2982 153.384 53.5324 150.226C46.3155 147.069 40.4518 143.01 35.0392 138.048C29.6265 132.635 25.5671 126.772 22.4097 119.555C19.7034 113.691 18.3502 107.376 17.8992 100.611L21.5076 101.513C22.4097 101.964 23.3118 101.513 24.2139 101.062C25.116 100.611 25.5671 99.7085 25.5671 98.8064C27.3713 89.3342 26.4692 80.7642 25.116 74.4495C24.665 73.0963 24.2139 71.2921 23.7628 69.9389C26.4692 64.5263 30.0776 60.0157 34.1371 55.9563C34.5882 55.5052 35.4903 54.6031 35.9413 54.152L36.3924 53.701L50.375 58.6626L67.5151 64.9773C69.7703 65.8794 72.4767 66.3305 75.183 66.3305C77.8893 66.3305 80.5956 65.8794 82.8509 64.9773L99.9909 58.6626L113.974 53.701L114.425 54.152C115.327 55.0542 116.229 55.5052 116.68 56.4073C119.837 60.0157 122.544 63.1731 124.348 66.7816C127.505 72.1942 129.76 77.1558 131.114 82.5684C132.367 87.5811 134.271 92.4916 134.271 97.4532Z" fill="#045BA7"/>
</svg>
